<svg width="107" height="105" viewBox="0 0 107 105" fill="none" xmlns="http://www.w3.org/2000/svg">
<path d="M50 9C50 5.134 53.134 2 57 2V96C57 99.866 53.866 103 50 103V9Z" fill="#CDBC00"/>
<path d="M10 56C6.134 56 3 52.866 3 49L97 49C100.866 49 104 52.134 104 56L10 56Z" fill="#CD0056"/>
<path d="M18.9497 23.8995C16.2161 21.1658 16.2161 16.7337 18.9497 14L85.4178 80.4681C88.1515 83.2017 88.1515 87.6339 85.4178 90.3676L18.9497 23.8995Z" fill="#CD6300"/>
<path d="M33.2211 13.5847C31.7105 10.026 33.3708 5.91662 36.9295 4.40606L73.6582 90.9335C75.1688 94.4922 73.5085 98.6016 69.9498 100.112L33.2211 13.5847Z" fill="#CD0000"/>
<path d="M67.1401 11.9906C68.6507 8.43192 72.7601 6.77161 76.3188 8.28218L39.5901 94.8096C38.0795 98.3683 33.9701 100.029 30.4114 98.518L67.1401 11.9906Z" fill="#48CD00"/>
<path d="M23.8995 86.4178C21.1658 89.1514 16.7337 89.1514 14 86.4178L80.468 19.9497C83.2017 17.2161 87.6339 17.2161 90.3675 19.9497L23.8995 86.4178Z" fill="#2900CD"/>
<path d="M14.1125 71.7033C10.5281 73.1515 6.44823 71.4198 5.00001 67.8353L92.1553 32.6223C95.7398 31.174 99.8196 32.9058 101.268 36.4903L14.1125 71.7033Z" fill="#CD00CD"/>
<path d="M11.4435 38.1787C7.88487 36.6681 6.22455 32.5587 7.73512 29L94.2626 65.7287C97.8212 67.2393 99.4815 71.3487 97.971 74.9074L11.4435 38.1787Z" fill="black"/>
</svg>
